<svg xmlns="http://www.w3.org/2000/svg" width="139.961" height="99.694" viewBox="0 0 139.961 99.694">
  <g id="Camada_2" data-name="Camada 2" transform="translate(0 0.001)">
    <g id="Capa_1" data-name="Capa 1" transform="translate(0 -0.001)">
      <path id="Caminho_18" data-name="Caminho 18" d="M137.221,8.294h-9.2V5.17a2.7,2.7,0,0,0-1.953-2.693A77,77,0,0,0,106.511,0C95.659,0,80.873,2.423,69.94,13.465,59.088,2.316,44.194,0,33.369,0a77,77,0,0,0-19.56,2.478A2.7,2.7,0,0,0,11.856,5.17v3.1H2.713A2.7,2.7,0,0,0,0,10.96V96.977a2.689,2.689,0,0,0,1.339,2.331,2.73,2.73,0,0,0,2.7.025c.271-.135,27.4-14.866,65.274-5.386h.651a2.634,2.634,0,0,0,.651,0c37.981-9.56,65.111,5.144,65.274,5.386a2.73,2.73,0,0,0,2.706,0,2.69,2.69,0,0,0,1.364-2.32V10.987a2.7,2.7,0,0,0-2.713-2.693Zm-131.8,84.4V13.68H11.91V81.222a2.7,2.7,0,0,0,2.672,2.723,2.391,2.391,0,0,0,.437-.03,119.634,119.634,0,0,1,16.956-1.347,70.91,70.91,0,0,1,23.169,3.474A100.376,100.376,0,0,0,5.426,92.695ZM67.254,85.8c-5.643-3.663-16.658-8.591-35.268-8.591a120.152,120.152,0,0,0-14.758.943V7.3A75.381,75.381,0,0,1,33.315,5.52c10.146,0,24.145,2.316,33.858,13.2ZM72.68,18.716c9.712-10.772,23.711-13.2,33.858-13.2A75.817,75.817,0,0,1,122.626,7.3V78.152a120.2,120.2,0,0,0-14.677-.97c-18.5,0-29.544,4.928-35.268,8.591Zm61.828,73.978a100.427,100.427,0,0,0-49.851-6.652,71.017,71.017,0,0,1,23.277-3.474A119.158,119.158,0,0,1,125,83.888a2.71,2.71,0,0,0,3.089-2.259,3.114,3.114,0,0,0,.031-.434V13.68h6.511Z" transform="translate(0 0.001)"/>
    </g>
  </g>
</svg>
