<svg xmlns="http://www.w3.org/2000/svg" viewBox="0 0 427.05 257.02"><defs><style>.cls-1,.cls-2{fill:#12100d;}.cls-1{fill-rule:evenodd;}</style></defs><g id="Camada_2" data-name="Camada 2"><g id="Camada_1-2" data-name="Camada 1"><path class="cls-1" d="M21.5,221.08l-5.55-10h-8v10H0v-35H15.2c4.55,0,8.1,1,10.6,3.15s3.75,5.15,3.75,9a13.52,13.52,0,0,1-1.65,6.89,10.77,10.77,0,0,1-4.9,4.4l7.45,11.55ZM7.9,204.48h7.3a7.55,7.55,0,0,0,5.1-1.54,5.64,5.64,0,0,0,1.75-4.45,5.54,5.54,0,0,0-1.75-4.41,8.1,8.1,0,0,0-5.1-1.44H7.9v11.84Zm44.6-18.95a19.62,19.62,0,0,1,9.55,2.36,17.35,17.35,0,0,1,9.25,15.64,17.47,17.47,0,0,1-9.25,15.7,20.2,20.2,0,0,1-19.1,0,18,18,0,0,1-6.75-24.89A17.3,17.3,0,0,1,43,187.89a19.48,19.48,0,0,1,9.55-2.36Zm.1,6.91a10.56,10.56,0,0,0-5.4,1.45,10.86,10.86,0,0,0-4,4,11.26,11.26,0,0,0-1.45,5.6,11.36,11.36,0,0,0,5.45,9.71,10.29,10.29,0,0,0,10.7,0,10.47,10.47,0,0,0,3.85-4.06,11.36,11.36,0,0,0,1.4-5.65,11.22,11.22,0,0,0-1.4-5.6,11,11,0,0,0-3.85-4,10.38,10.38,0,0,0-5.35-1.45Zm38.75-6.35a20.52,20.52,0,0,1,9.55,2.19,16.41,16.41,0,0,1,6.55,6.21,18.85,18.85,0,0,1,0,18.14,16.12,16.12,0,0,1-6.65,6.2,20.42,20.42,0,0,1-9.7,2.25H76.5v-35Zm.2,28.34A9.74,9.74,0,0,0,96.8,213a9.05,9.05,0,0,0,3.6-3.8,12,12,0,0,0,1.3-5.6,11.68,11.68,0,0,0-1.35-5.65,9.93,9.93,0,0,0-9.15-5.25H84.4v21.7Zm44.9,6.65-5.55-10h-8.05v10H115v-35h15.2c4.55,0,8.1,1,10.6,3.15s3.75,5.15,3.75,9a13.52,13.52,0,0,1-1.65,6.89,10.77,10.77,0,0,1-4.9,4.4l7.45,11.55Zm-13.6-16.6h7.3a7.55,7.55,0,0,0,5.1-1.54,5.64,5.64,0,0,0,1.75-4.45,5.54,5.54,0,0,0-1.75-4.41,8.1,8.1,0,0,0-5.1-1.44h-7.3v11.84Zm28.3-18.39h7.9v35h-7.9v-35Zm39.15,17.35h6.85V217a23.94,23.94,0,0,1-6.7,3.3,22.53,22.53,0,0,1-7.5,1.3,19,19,0,0,1-9.5-2.4,17.63,17.63,0,0,1-9.15-15.7,17.61,17.61,0,0,1,2.5-9.19,17,17,0,0,1,6.9-6.45,20.2,20.2,0,0,1,9.7-2.36,21.56,21.56,0,0,1,7.65,1.4,21.29,21.29,0,0,1,6.4,3.8L193,196.39a14.22,14.22,0,0,0-4.5-2.91,13.29,13.29,0,0,0-5.1-1,10.9,10.9,0,0,0-9.55,5.44,11.48,11.48,0,0,0-1.45,5.65,10.93,10.93,0,0,0,1.5,5.65,10.15,10.15,0,0,0,4,4.06,10.59,10.59,0,0,0,5.55,1.5,12,12,0,0,0,3.35-.56,19.62,19.62,0,0,0,3.5-1.39v-9.35Zm30-17.91a19.62,19.62,0,0,1,9.55,2.36,17.35,17.35,0,0,1,9.25,15.64,17.47,17.47,0,0,1-9.25,15.7,20.2,20.2,0,0,1-19.1,0,18,18,0,0,1-6.75-24.89,17.3,17.3,0,0,1,6.75-6.45,19.48,19.48,0,0,1,9.55-2.36Zm.1,6.91a10.56,10.56,0,0,0-5.4,1.45,10.86,10.86,0,0,0-4,4,11.26,11.26,0,0,0-1.45,5.6,11.36,11.36,0,0,0,5.45,9.71,10.29,10.29,0,0,0,10.7,0,10.47,10.47,0,0,0,3.85-4.06,11.36,11.36,0,0,0,1.4-5.65,11.22,11.22,0,0,0-1.4-5.6,11,11,0,0,0-3.85-4,10.38,10.38,0,0,0-5.35-1.45Zm31.75-6.35h8.5l9.55,26.39,9.6-26.39H288l-13.9,35H266l-13.75-35Zm39.65,0h7.9v35h-7.9v-35Zm15.65,0h26.65v6.55H315.4v7.6h16.85v6.54H315.4v7.75h19.3v6.55H307.5v-35Zm33.4,0h7.9v35h-7.9v-35Zm37.15,35-5.55-10h-8.05v10h-7.9v-35h15.2c4.55,0,8.1,1,10.6,3.15s3.75,5.15,3.75,9a13.52,13.52,0,0,1-1.65,6.89,10.77,10.77,0,0,1-4.9,4.4L387,221.08Zm-13.6-16.6h7.3a7.55,7.55,0,0,0,5.1-1.54,5.64,5.64,0,0,0,1.75-4.45,5.54,5.54,0,0,0-1.75-4.41,8.1,8.1,0,0,0-5.1-1.44h-7.3v11.84Zm54.15,16.6-2.75-6.8h-16.2l-2.75,6.8h-8.15l15.2-35h8.15l14.95,35Zm-16.35-13.15H413.3l-5.5-13.59-5.55,13.59Z"/><path class="cls-1" d="M134.2,256.82h2.55L126.32,234h-2.38l-10.43,22.8H116l2.74-6.09h12.71l2.73,6.09Zm-14.56-8,5.47-12.25,5.48,12.25Zm20.88,8h9.29c7.3,0,12.22-4.69,12.22-11.4S157.11,234,149.81,234h-9.29v22.8Zm2.41-2.08V236.1h6.75c6.06,0,10,3.85,10,9.32s-3.91,9.32-10,9.32Z"/><polygon class="cls-1" points="183.27 234.02 174.48 253.83 165.74 234.02 163.14 234.02 173.24 256.82 175.62 256.82 185.72 234.02 183.27 234.02 183.27 234.02"/><path class="cls-1" d="M198.78,257c6.84,0,12-4.92,12-11.6s-5.12-11.6-12-11.6-12,5-12,11.6,5.08,11.6,12,11.6Zm0-2.15a9.45,9.45,0,1,1,9.55-9.45,9.27,9.27,0,0,1-9.55,9.45Zm33.43-1.76a9.88,9.88,0,0,1-6,1.76c-5.61,0-9.74-4-9.74-9.45s4.13-9.45,9.77-9.45a9.29,9.29,0,0,1,6.87,2.67l1.5-1.53a11.25,11.25,0,0,0-8.47-3.29c-7,0-12.05,4.92-12.05,11.6s5.08,11.6,12,11.6a12.59,12.59,0,0,0,8.37-2.9v-8.7h-2.31v7.69Zm26.16,3.71h2.54L250.49,234h-2.38l-10.43,22.8h2.51l2.74-6.09h12.7l2.74,6.09Zm-14.56-8,5.47-12.25,5.48,12.25Zm20.88,8H274c7.29,0,12.22-4.69,12.22-11.4S281.27,234,274,234h-9.29v22.8Zm2.41-2.08V236.1h6.75c6.06,0,10,3.85,10,9.32s-3.91,9.32-10,9.32ZM301.57,257c6.84,0,12-4.92,12-11.6s-5.12-11.6-12-11.6-12,5-12,11.6,5.09,11.6,12,11.6Zm0-2.15a9.45,9.45,0,1,1,9.55-9.45,9.28,9.28,0,0,1-9.55,9.45Z"/><path class="cls-1" d="M191.54,89.8h29.35c4.19,0,7.39-1,9.49-2.84s3.21-4.44,3.21-8-1.11-6.29-3.21-8.14-5.18-3-9.12-3H191.54v22Zm-8.26,36.86V60.2h38.1c6.54,0,11.59,1.61,15.29,4.94s5.55,7.76,5.55,13.56A18.76,18.76,0,0,1,237.9,91a18.43,18.43,0,0,1-11.47,6.41l16.65,29.22H234l-16.65-29.1H191.54v29.1Z"/><polygon class="cls-1" points="235.79 144.3 230.64 144.77 192.7 81.48 201.66 80.67 232.02 131.4 252.75 76.03 261.84 75.2 235.79 144.3 235.79 144.3"/><path class="cls-2" d="M309.25,84.77a19.18,19.18,0,0,1-36.07,0Z"/><polygon class="cls-2" points="306.83 85.75 291.21 47.01 275.6 85.75 274.62 85.35 291.21 44.18 307.81 85.35 306.83 85.75 306.83 85.75"/><polygon class="cls-2" points="291.74 89.69 290.69 89.69 290.69 45.94 291.74 45.94 291.74 89.69 291.74 89.69"/><path class="cls-2" d="M217.94,43.37c-21.14,0-32.14,8.11-49.26,6.76v59.2c0,27.84,34.84,53.79,49.26,53.79s49.27-26,49.27-53.79V50.13c-17.12,1.35-28.12-6.76-49.27-6.76Zm46.59,65.56h0c0,15.74-11.37,28.87-18.14,35.28-9.64,9.15-21.34,15.54-28.45,15.54s-18.8-6.39-28.45-15.54c-6.78-6.41-18.13-19.54-18.13-35.28V53l.58,0c1.18.08,2.38.14,3.55.14,6.5,0,12.2-1.42,18.24-2.91,7.09-1.75,14.43-3.55,24.21-3.55s17.12,1.8,24.21,3.55c6,1.49,11.74,2.91,18.24,2.91,1.18,0,2.38-.06,3.55-.14l.59,0v55.91Z"/><path class="cls-2" d="M163.26,84.77a19.19,19.19,0,0,1-36.08,0Z"/><polygon class="cls-2" points="160.84 85.75 145.22 47.01 129.61 85.75 128.62 85.35 145.22 44.18 161.82 85.35 160.84 85.75 160.84 85.75"/><polygon class="cls-2" points="145.75 89.69 144.69 89.69 144.69 45.94 145.75 45.94 145.75 89.69 145.75 89.69"/><path class="cls-1" d="M179.31,49.83c-.12-.12-21.87,2.6-34.09-5.65V47a64.15,64.15,0,0,0,15.27,5,77.09,77.09,0,0,0,18.14,1.13l1.43-1.38-.75-1.89Z"/><path class="cls-1" d="M257,49.83c.11-.12,21.87,2.6,34.08-5.65V47a64.15,64.15,0,0,1-15.27,5,77.06,77.06,0,0,1-18.14,1.13l-1.43-1.38.76-1.89Z"/><path class="cls-2" d="M241.75,22.53c-.69,3-2.14,3.26-2.14,3.26-.09-3.86-2.16-5.41-3.54-5.63-5.21-.85-5.22,4.34-5.22,4.34,1.75-2.43,4.91-1.52,5.78,1.15,1.14,3.54-.6,9.27-.6,9.27l-4.6-.07c-.38-1.09-1-3.21-.52-4.52a3.41,3.41,0,0,0,1.35.27,6.41,6.41,0,0,0,3.38-1.23,6.5,6.5,0,0,0-3.38-1.23,3.5,3.5,0,0,0-.75.09,2.18,2.18,0,0,0,.05-.38A4.72,4.72,0,0,0,230.1,25a4.67,4.67,0,0,0-1.46,2.81,1.52,1.52,0,0,0,.05.38,3.58,3.58,0,0,0-.75-.09,6.5,6.5,0,0,0-3.38,1.23,6.41,6.41,0,0,0,3.38,1.23,3.45,3.45,0,0,0,1.35-.27c.44,1.3-.13,3.38-.51,4.48l-5.56-.08a47.12,47.12,0,0,1-.91-10.48c1.59-.2,2.67-.59,2.67-1s-1-.79-2.4-1c1-.08,1.68-.2,1.68-.34s-.62-.25-1.57-.32c1.38-5.49,5.76-2.46,5.76-2.46-.8-4.9-6-3.08-6-3.08a6.34,6.34,0,0,0,1.3-4.94c-.48-3.92-3.05-5-3.83-11.09-.79,6.11-3.36,7.17-3.85,11.09A6.35,6.35,0,0,0,217.41,16s-5.19-1.82-6,3.08c0,0,4.38-3,5.77,2.46-1,.07-1.58.19-1.58.32s.67.26,1.68.34c-1.43.2-2.4.57-2.4,1s1.09.83,2.68,1a47.88,47.88,0,0,1-.92,10.48l-5.56.08c-.38-1.1-1-3.18-.51-4.48a3.46,3.46,0,0,0,1.36.27,6.36,6.36,0,0,0,3.37-1.23,6.45,6.45,0,0,0-3.37-1.23,3.42,3.42,0,0,0-.75.09,2.22,2.22,0,0,0,0-.38A4.73,4.73,0,0,0,209.78,25h0a4.73,4.73,0,0,0-1.45,2.81,2.22,2.22,0,0,0,0,.38,3.5,3.5,0,0,0-.75-.09,6.55,6.55,0,0,0-3.38,1.23,6.45,6.45,0,0,0,3.38,1.23,3.38,3.38,0,0,0,1.35-.27c.46,1.31-.14,3.43-.52,4.52l-4.6.07s-1.74-5.73-.6-9.27c.87-2.67,4-3.58,5.78-1.15,0,0,0-5.19-5.22-4.34-1.38.22-3.45,1.77-3.54,5.63,0,0-1.45-.29-2.14-3.26-1.07-4.59-3.44-2-6.1-6.5l9,24.11h37.85l9-24.11c-2.67,4.47-5,1.91-6.11,6.5Zm-35.68,17h0l-.55-1,.55-1.05h0l.56,1.05-.56,1Zm3.71,0h0L209,38.14l.73-1.39h0l.73,1.39-.73,1.39Zm4.4,0h0l-1.06-2,1.06-2h0l1.06,2-1.06,2Zm5.76,0h0v0h0v0l-1.57-3,1.57-3v0h0v0l1.58,3-1.58,3Zm0-24.67h0a4.06,4.06,0,0,1-1.57-3,3.94,3.94,0,0,1,1.58-3h0a3.94,3.94,0,0,1,1.59,3,4,4,0,0,1-1.6,3Zm5.77,24.68h0l-1.06-2,1.06-2h0l1.07,2-1.07,2Zm4.4,0h0l-.74-1.39.74-1.39h0l.74,1.39-.74,1.39Zm3.71,0h0l-.55-1,.55-1.05h0l.55,1.05-.55,1Z"/></g></g></svg>