<svg xmlns="http://www.w3.org/2000/svg" viewBox="0 0 645.59 163.12"><defs><style>.cls-1,.cls-2{fill:#fff;}.cls-1{fill-rule:evenodd;}</style></defs><g id="Camada_2" data-name="Camada 2"><g id="Camada_1-2" data-name="Camada 1"><path class="cls-1" d="M240,81.37l-5.55-10h-8.05v10h-7.9v-35h15.2c4.55,0,8.1,1.05,10.6,3.15s3.75,5.15,3.75,9a13.56,13.56,0,0,1-1.65,6.9,10.77,10.77,0,0,1-4.9,4.4L249,81.37Zm-13.6-16.6h7.3a7.5,7.5,0,0,0,5.1-1.55,5.62,5.62,0,0,0,1.75-4.45,5.51,5.51,0,0,0-1.75-4.4,8,8,0,0,0-5.1-1.45h-7.3V64.77ZM271,45.82a19.72,19.72,0,0,1,9.55,2.35,17.82,17.82,0,0,1,0,31.35,20.2,20.2,0,0,1-19.1,0,17.84,17.84,0,0,1,0-31.35A19.58,19.58,0,0,1,271,45.82Zm.1,6.9a10.66,10.66,0,0,0-5.4,1.45,11,11,0,0,0-3.95,4,11.26,11.26,0,0,0-1.45,5.6,11.33,11.33,0,0,0,5.45,9.7,10.29,10.29,0,0,0,10.7,0,10.37,10.37,0,0,0,3.85-4,11.41,11.41,0,0,0,1.4-5.65,11.22,11.22,0,0,0-1.4-5.6,11.1,11.1,0,0,0-3.85-4,10.48,10.48,0,0,0-5.35-1.45Zm38.75-6.35a20.52,20.52,0,0,1,9.55,2.2,16.32,16.32,0,0,1,6.55,6.2,18.87,18.87,0,0,1-.05,18.15,16.25,16.25,0,0,1-6.65,6.2,20.42,20.42,0,0,1-9.7,2.25H295v-35Zm.2,28.35a9.83,9.83,0,0,0,5.25-1.4,9.11,9.11,0,0,0,3.6-3.8,12,12,0,0,0,1.3-5.6,11.65,11.65,0,0,0-1.35-5.65A9.93,9.93,0,0,0,309.74,53h-6.8v21.7ZM355,81.37l-5.55-10h-8.05v10h-7.9v-35h15.2c4.55,0,8.1,1.05,10.6,3.15s3.75,5.15,3.75,9a13.56,13.56,0,0,1-1.65,6.9,10.77,10.77,0,0,1-4.9,4.4l7.45,11.55Zm-13.6-16.6h7.3a7.5,7.5,0,0,0,5.1-1.55,5.62,5.62,0,0,0,1.75-4.45,5.51,5.51,0,0,0-1.75-4.4,8,8,0,0,0-5.1-1.45h-7.3V64.77Zm28.3-18.4h7.9v35h-7.9v-35Zm39.15,17.35h6.85v13.6a23.94,23.94,0,0,1-6.7,3.3,22.78,22.78,0,0,1-7.5,1.3,19,19,0,0,1-9.5-2.4,17.66,17.66,0,0,1-9.15-15.7,17.64,17.64,0,0,1,2.5-9.2,17.18,17.18,0,0,1,6.9-6.45,20.31,20.31,0,0,1,9.7-2.35,21.34,21.34,0,0,1,7.65,1.4A20.89,20.89,0,0,1,416,51l-4.45,5.65a14.2,14.2,0,0,0-4.5-2.9,13.3,13.3,0,0,0-5.1-1.05,10.88,10.88,0,0,0-9.55,5.45,11.45,11.45,0,0,0-1.45,5.65,11,11,0,0,0,1.5,5.65,10.06,10.06,0,0,0,4,4A10.5,10.5,0,0,0,402,75a12,12,0,0,0,3.35-.55,18.94,18.94,0,0,0,3.5-1.4V63.72Zm30.05-17.9a19.72,19.72,0,0,1,9.55,2.35,17.82,17.82,0,0,1,0,31.35,20.2,20.2,0,0,1-19.1,0,17.84,17.84,0,0,1,0-31.35,19.58,19.58,0,0,1,9.55-2.35Zm.1,6.9a10.66,10.66,0,0,0-5.4,1.45,11,11,0,0,0-3.95,4,11.26,11.26,0,0,0-1.45,5.6,11.33,11.33,0,0,0,5.45,9.7,10.29,10.29,0,0,0,10.7,0,10.37,10.37,0,0,0,3.85-4,11.41,11.41,0,0,0,1.4-5.65,11.22,11.22,0,0,0-1.4-5.6,11.1,11.1,0,0,0-3.85-4A10.48,10.48,0,0,0,439,52.72Zm31.75-6.35h8.5l9.55,26.4,9.6-26.4h8.15l-13.9,35h-8.15l-13.75-35Zm39.65,0h7.9v35h-7.9v-35Zm15.65,0h26.65v6.55H533.94v7.6h16.85v6.55H533.94v7.75h19.3v6.55H526v-35Zm33.4,0h7.9v35h-7.9v-35Zm37.15,35-5.55-10h-8v10h-7.9v-35h15.2c4.55,0,8.1,1.05,10.6,3.15s3.75,5.15,3.75,9a13.56,13.56,0,0,1-1.65,6.9,10.77,10.77,0,0,1-4.9,4.4l7.45,11.55ZM583,64.77h7.3a7.5,7.5,0,0,0,5.1-1.55,5.62,5.62,0,0,0,1.75-4.45,5.51,5.51,0,0,0-1.75-4.4,8,8,0,0,0-5.1-1.45H583V64.77Zm54.15,16.6-2.75-6.8h-16.2l-2.75,6.8h-8.15l15.2-35h8.15l15,35ZM620.79,68.22h11.05l-5.5-13.6-5.55,13.6Z"/><path class="cls-1" d="M352.75,117.11h2.54L344.86,94.3h-2.38l-10.42,22.81h2.51l2.73-6.1H350l2.74,6.1Zm-14.57-8,5.48-12.25,5.47,12.25Zm20.89,8h9.28c7.3,0,12.22-4.7,12.22-11.41s-4.92-11.4-12.22-11.4h-9.28v22.81Zm2.41-2.09V96.39h6.74c6.06,0,10,3.84,10,9.31s-3.91,9.32-10,9.32Z"/><polygon class="cls-1" points="401.82 94.3 393.02 114.11 384.29 94.3 381.68 94.3 391.78 117.11 394.16 117.11 404.26 94.3 401.82 94.3 401.82 94.3"/><path class="cls-1" d="M417.32,117.3c6.85,0,12-4.92,12-11.6s-5.11-11.6-12-11.6-12,5-12,11.6,5.08,11.6,12,11.6Zm0-2.15a9.45,9.45,0,1,1,9.55-9.45,9.28,9.28,0,0,1-9.55,9.45Zm33.43-1.76a9.88,9.88,0,0,1-6,1.76,9.35,9.35,0,0,1-9.74-9.45c0-5.44,4.14-9.44,9.77-9.44a9.32,9.32,0,0,1,6.88,2.67l1.49-1.54a11.22,11.22,0,0,0-8.47-3.29c-7,0-12.05,4.93-12.05,11.6s5.08,11.6,12,11.6a12.57,12.57,0,0,0,8.37-2.9v-8.7h-2.31v7.69Zm26.16,3.72h2.55L469,94.3h-2.38l-10.42,22.81h2.5l2.74-6.1h12.71l2.73,6.1Zm-14.56-8,5.48-12.25,5.47,12.25Zm20.88,8h9.29c7.3,0,12.22-4.7,12.22-11.41s-4.92-11.4-12.22-11.4h-9.29v22.81Zm2.42-2.09V96.39h6.74c6.06,0,10,3.84,10,9.31s-3.91,9.32-10,9.32Zm34.47,2.28c6.84,0,12-4.92,12-11.6s-5.11-11.6-12-11.6-12,5-12,11.6,5.08,11.6,12,11.6Zm0-2.15a9.45,9.45,0,1,1,9.54-9.45,9.27,9.27,0,0,1-9.54,9.45Z"/><path class="cls-1" d="M64.36,89.8H93.7c4.2,0,7.4-1,9.5-2.84s3.2-4.44,3.2-8-1.11-6.29-3.2-8.14-5.18-3-9.13-3H64.36v22Zm-8.27,36.86V60.2H94.2c6.53,0,11.59,1.61,15.29,4.94S115,72.9,115,78.7A18.75,18.75,0,0,1,110.72,91a18.45,18.45,0,0,1-11.47,6.41l16.65,29.22h-9.13L90.13,97.56H64.36v29.1Z"/><polygon class="cls-1" points="108.61 144.3 103.45 144.77 65.52 81.48 74.48 80.67 104.84 131.4 125.56 76.03 134.65 75.2 108.61 144.3 108.61 144.3"/><path class="cls-2" d="M182.07,84.77a19.19,19.19,0,0,1-36.08,0Z"/><polygon class="cls-2" points="179.65 85.75 164.03 47.01 148.41 85.75 147.43 85.35 164.03 44.18 180.63 85.35 179.65 85.75 179.65 85.75"/><polygon class="cls-2" points="164.56 89.69 163.5 89.69 163.5 45.94 164.56 45.94 164.56 89.69 164.56 89.69"/><path class="cls-2" d="M90.76,43.37c-21.15,0-32.14,8.11-49.27,6.76v59.2c0,27.84,34.84,53.79,49.27,53.79s49.27-26,49.27-53.79V50.13c-17.13,1.35-28.12-6.76-49.27-6.76Zm46.58,65.56h0c0,15.74-11.36,28.87-18.14,35.28-9.64,9.15-21.33,15.54-28.44,15.54S72,153.36,62.3,144.21c-6.77-6.41-18.13-19.54-18.13-35.28V53l.59,0c1.17.08,2.37.14,3.55.14,6.5,0,12.19-1.42,18.24-2.91,7.09-1.75,14.43-3.55,24.21-3.55s17.12,1.8,24.21,3.55c6,1.49,11.74,2.91,18.24,2.91,1.18,0,2.38-.06,3.55-.14l.58,0v55.91Z"/><path class="cls-2" d="M36.08,84.77A19.19,19.19,0,0,1,0,84.77Z"/><polygon class="cls-2" points="33.65 85.75 18.04 47.01 2.42 85.75 1.44 85.35 18.04 44.18 34.63 85.35 33.65 85.75 33.65 85.75"/><polygon class="cls-2" points="18.57 89.69 17.51 89.69 17.51 45.94 18.57 45.94 18.57 89.69 18.57 89.69"/><path class="cls-1" d="M52.12,49.83C52,49.71,30.25,52.43,18,44.18V47a64.15,64.15,0,0,0,15.27,5A77.06,77.06,0,0,0,51.45,53.1l1.43-1.38-.76-1.89Z"/><path class="cls-1" d="M129.8,49.83c.12-.12,21.87,2.6,34.09-5.65V47a64.36,64.36,0,0,1-15.27,5,77.09,77.09,0,0,1-18.14,1.13L129,51.72l.76-1.89Z"/><path class="cls-2" d="M114.57,22.53c-.69,3-2.14,3.26-2.14,3.26-.1-3.86-2.16-5.41-3.54-5.63-5.21-.85-5.22,4.34-5.22,4.34,1.74-2.43,4.91-1.52,5.77,1.15,1.15,3.54-.59,9.27-.59,9.27l-4.6-.07c-.38-1.09-1-3.21-.52-4.52a3.38,3.38,0,0,0,1.35.27,6.36,6.36,0,0,0,3.37-1.23,6.45,6.45,0,0,0-3.37-1.23,3.42,3.42,0,0,0-.75.09,2.18,2.18,0,0,0,0-.38A4.72,4.72,0,0,0,102.92,25a4.67,4.67,0,0,0-1.46,2.81,2.22,2.22,0,0,0,0,.38,3.42,3.42,0,0,0-.75-.09,6.45,6.45,0,0,0-3.37,1.23,6.36,6.36,0,0,0,3.37,1.23,3.38,3.38,0,0,0,1.35-.27c.45,1.3-.13,3.38-.5,4.48L96,34.73a46.51,46.51,0,0,1-.91-10.48c1.58-.2,2.67-.59,2.67-1s-1-.79-2.4-1c1-.08,1.68-.2,1.68-.34s-.62-.25-1.58-.32c1.39-5.49,5.77-2.46,5.77-2.46-.8-4.9-6-3.08-6-3.08a6.32,6.32,0,0,0,1.31-4.94c-.48-3.92-3.06-5-3.84-11.09C92,6.11,89.4,7.17,88.91,11.09A6.32,6.32,0,0,0,90.22,16s-5.18-1.82-6,3.08c0,0,4.38-3,5.77,2.46-1,.07-1.59.19-1.59.32s.67.26,1.69.34c-1.44.2-2.4.57-2.4,1s1.08.83,2.67,1a47.12,47.12,0,0,1-.91,10.48l-5.56.08c-.38-1.1-1-3.18-.51-4.48a3.41,3.41,0,0,0,1.35.27,6.41,6.41,0,0,0,3.38-1.23,6.5,6.5,0,0,0-3.38-1.23,3.5,3.5,0,0,0-.75.09,2.18,2.18,0,0,0,0-.38A4.72,4.72,0,0,0,82.59,25h0a4.67,4.67,0,0,0-1.46,2.81,2.22,2.22,0,0,0,0,.38,3.33,3.33,0,0,0-.74-.09,6.55,6.55,0,0,0-3.38,1.23,6.45,6.45,0,0,0,3.38,1.23,3.41,3.41,0,0,0,1.35-.27c.46,1.31-.14,3.43-.52,4.52l-4.6.07s-1.75-5.73-.6-9.27c.87-2.67,4-3.58,5.78-1.15,0,0,0-5.19-5.23-4.34-1.37.22-3.44,1.77-3.53,5.63,0,0-1.45-.29-2.14-3.26-1.07-4.59-3.44-2-6.11-6.5l9,24.11h37.86l9-24.11c-2.67,4.47-5,1.91-6.1,6.5Zm-35.69,17h0l-.55-1,.55-1.05h0l.56,1.05-.56,1Zm3.71,0h0l-.74-1.39.74-1.39h0l.74,1.39-.74,1.39Zm4.41,0h0l-1.07-2,1.07-2h0l1.06,2-1.06,2Zm5.76,0h0v0h0v0l-1.58-3,1.58-3v0h0v0l1.58,3-1.58,3Zm0-24.67h0a4.06,4.06,0,0,1-1.58-3,3.94,3.94,0,0,1,1.58-3h0a4,4,0,0,1,1.58,3,4.05,4.05,0,0,1-1.59,3Zm5.77,24.68h0l-1.06-2,1.06-2h0l1.06,2-1.06,2Zm4.4,0h0l-.73-1.39.73-1.39h0l.74,1.39-.74,1.39Zm3.7,0h0l-.56-1,.56-1.05h0l.56,1.05-.56,1Z"/></g></g></svg>