<svg xmlns="http://www.w3.org/2000/svg" width="99.964" height="99.95" viewBox="0 0 99.964 99.95">
  <path id="Caminho_20" data-name="Caminho 20" d="M.936,46.582a1.952,1.952,0,0,0,2.075-.061,21.328,21.328,0,0,1,22.227-.178,1.933,1.933,0,0,0,1.306.506h.021a1.952,1.952,0,0,0,1.122-.326,18.975,18.975,0,0,1,20.3-.543V90.189a9.761,9.761,0,0,0,19.522,0V82.381a1.952,1.952,0,1,0-3.9,0v7.809a5.856,5.856,0,1,1-11.713,0V45.979a18.975,18.975,0,0,1,20.3.543,1.952,1.952,0,0,0,1.085.33h.059a1.952,1.952,0,0,0,1.306-.5,21.345,21.345,0,0,1,22.227.176,1.952,1.952,0,0,0,3.049-1.784C97.857,19.76,75.634,0,49.949,0S2.041,19.746-.026,44.739A1.952,1.952,0,0,0,.936,46.582ZM51.9,41.561V33.187a1.952,1.952,0,0,0-3.9,0v8.375a22.852,22.852,0,0,0-19.354-.043C29.9,21.774,38.107,5.952,48,4.1v13.47a1.952,1.952,0,0,0,3.9,0V4.1c9.89,1.862,18.093,17.685,19.354,37.429a22.84,22.84,0,0,0-19.354.033Zm43.654-.176A25.315,25.315,0,0,0,85.673,39.4h-.039a25.216,25.216,0,0,0-10.46,2.225C74.451,29.37,70.7,14.116,62.068,5.556,79,10.229,92.576,24.33,95.555,41.386ZM37.828,5.556c-8.636,8.562-12.381,23.816-13.1,36.074a25.749,25.749,0,0,0-20.38-.244C7.322,24.33,20.9,10.229,37.828,5.556Z" transform="translate(0.032)"/>
</svg>
