<svg id="Camada_2" data-name="Camada 2" xmlns="http://www.w3.org/2000/svg" width="111.099" height="99.989" viewBox="0 0 111.099 99.989">
  <g id="Camada_1" data-name="Camada 1">
    <path id="Caminho_23" data-name="Caminho 23" d="M105.544,16.665H81.473V9.258A9.27,9.27,0,0,0,72.214,0H38.885a9.27,9.27,0,0,0-9.258,9.258v7.407H5.555A5.555,5.555,0,0,0,0,22.22V63.438a5.576,5.576,0,0,0,3.7,5.226v25.77a5.555,5.555,0,0,0,5.555,5.555h92.583a5.555,5.555,0,0,0,5.555-5.555V68.666a5.58,5.58,0,0,0,3.7-5.229V22.22A5.555,5.555,0,0,0,105.544,16.665ZM33.33,9.258A5.555,5.555,0,0,1,38.885,3.7h33.33a5.555,5.555,0,0,1,5.555,5.555v7.407h-3.7V9.258a1.852,1.852,0,0,0-1.852-1.852H38.885a1.852,1.852,0,0,0-1.852,1.852v7.407h-3.7Zm37.033,7.407H40.736V11.11H70.363Zm33.33,77.769a1.852,1.852,0,0,1-1.852,1.852H9.258a1.852,1.852,0,0,1-1.852-1.852V69.3l40.736,5.62v4.7A5.555,5.555,0,0,0,53.7,85.176h3.7a5.555,5.555,0,0,0,5.555-5.555v-4.7l40.736-5.62ZM59.253,79.621A1.852,1.852,0,0,1,57.4,81.473H53.7a1.852,1.852,0,0,1-1.852-1.852V68.511A1.852,1.852,0,0,1,53.7,66.66h3.7a1.852,1.852,0,0,1,1.852,1.852ZM107.4,63.438a1.852,1.852,0,0,1-1.592,1.835l-.514.069L62.956,71.18V68.511A5.555,5.555,0,0,0,57.4,62.956H53.7a5.555,5.555,0,0,0-5.555,5.555V71.18L5.3,65.271A1.852,1.852,0,0,1,3.7,63.438V22.22a1.852,1.852,0,0,1,1.852-1.852h99.989A1.852,1.852,0,0,1,107.4,22.22Z"/>
  </g>
</svg>
